<mxfile host="app.diagrams.net" modified="2023-03-19T16:32:34.704Z" agent="5.0 (Windows)" etag="qDLmrpxR5wEESbOlsfGF" version="21.0.6" type="github">
  <diagram id="R2lEEEUBdFMjLlhIrx00" name="Page-1">
    <mxGraphModel dx="880" dy="1562" grid="1" gridSize="10" guides="1" tooltips="1" connect="1" arrows="1" fold="1" page="1" pageScale="1" pageWidth="850" pageHeight="1100" math="0" shadow="0" extFonts="Permanent Marker^https://fonts.googleapis.com/css?family=Permanent+Marker">
      <root>
        <mxCell id="0" />
        <mxCell id="1" parent="0" />
        <mxCell id="QdVan_ykftZ-8v83U72t-1" value="&#xa;&lt;p id=&quot;docs-internal-guid-431baa5b-7fff-80fd-db6a-240afc446c9a&quot; style=&quot;line-height:1.38;margin-top:0pt;margin-bottom:0pt;&quot; dir=&quot;ltr&quot;&gt;&lt;span style=&quot;font-size: 11pt; font-family: Arial; color: rgb(0, 0, 0); background-color: transparent; font-weight: 400; font-style: normal; font-variant: normal; text-decoration: none; vertical-align: baseline;&quot;&gt;Exercicio4&lt;/span&gt;&lt;/p&gt;&lt;p style=&quot;line-height:1.38;text-align: justify;margin-top:0pt;margin-bottom:0pt;&quot; dir=&quot;ltr&quot;&gt;&lt;span style=&quot;font-size: 11pt; font-family: Arial; color: rgb(0, 0, 0); background-color: transparent; font-weight: 400; font-style: normal; font-variant: normal; text-decoration: none; vertical-align: baseline;&quot;&gt;Clientes de agências bancárias&lt;/span&gt;&lt;/p&gt;&lt;p style=&quot;line-height:1.38;text-align: justify;margin-top:0pt;margin-bottom:0pt;&quot; dir=&quot;ltr&quot;&gt;&lt;span style=&quot;font-size: 11pt; font-family: Arial; color: rgb(0, 0, 0); background-color: transparent; font-weight: 400; font-style: normal; font-variant: normal; text-decoration: none; vertical-align: baseline;&quot;&gt;Uma instituição bancária deseja controlar o movimento das suas contas correntes. A instituição possui agências espalhadas por várias cidades. O cadastro das agências contém informações sobre código, nome e endereço onde a agência é localizada. No cadastro de clientes estão armazenados os dados de nome, CPF e endereço de cada cliente. As contas correntes são identificadas por um número e mantêm o saldo atualizado das mesmas. Faça um DER que apresente uma solução para o problema&lt;/span&gt;&lt;/p&gt;&#xa;&#xa;" style="text;html=1;strokeColor=none;fillColor=none;align=center;verticalAlign=middle;whiteSpace=wrap;rounded=0;" vertex="1" parent="1">
          <mxGeometry x="190" y="60" width="640" height="30" as="geometry" />
        </mxCell>
        <mxCell id="QdVan_ykftZ-8v83U72t-2" value="" style="shape=image;verticalLabelPosition=bottom;labelBackgroundColor=default;verticalAlign=top;aspect=fixed;imageAspect=0;image=data:image/png,iVBORw0KGgoAAAANSUhEUgAAAskAAAH6CAYAAAD1M9FzAABSlUlEQVR4Xu3dDewVxb34/15AoEDBQAXlSXmWlJbWSkNISUQUtbSStjdtiiS1tLkarwotEQI33AiES6qSS5EAaouVakWs2AexPDUK3CLeam5btbVGlBZBnlGJlOf5/z5z/rPume85e/bMd3bP7p73Kzlhdmdn97C7M+fz3Z2d/ZgCAAAAUOZj9gwAAACg2REkAwAAABaCZAAAAMBCkAwAAABYCJIBAAAAC0EyAAAAYCFIBgAAACwEyQAAAICFIBkAgAzavn27mjx5surXr5/62Mc+pv+VaZkPIHkEyQAAZMiZM2fUbbfdpgPjah/Jl+UAJIcgGQCADKkVIIcD5WrMMpVE5QH4CLUEAICMkK4UdjAc9XHpekGQDMRDLQFQ07lz59SaNWvUDTfcoC655BL9A3vxxRera665Rv3oRz9SH3zwgV0EgINvfetbLQLhqI8sX0k4ED548KCuq/3791crV64kSAZiopYAiHTkyBE1btw4NWbMGPXEE0+od999V8+Xf9evX68fJJLA+Re/+IVVEkC9+vTp0yIQjvrI8pWEA+GpU6fq9IoVK8q6cgCIRi0BUJVcQZYAefr06TpdzUsvvaQuu+wy9cADD9hZAOrQoUOHFoFw1EeWryQcCJvA++jRo/qqMkEyEA+1BEBVjz/+uL6CHBUgG2+99Za66KKL1KuvvmpnAU2vR48eLQLcSp927dq1mBf1iXMl2QTeZ8+e1Z9wHoDqqCUAqvrSl76knnzySXt2VT/84Q/Vd7/7XXu2On36tJo9e7bq27ev6tKli5owYYLavXu3zpNhrGbOnKl69eqlf/BnzZoVDG1lfswffvhhHWSMHz9eHT58OLxqIBfiBqVJ9Ek24yxL3ZFuUuE8ANVRSwBUJYGr6YMcx65du9Sll15qz1bz58/XP8rLly9XW7Zs0Wm5Qi0WLlyop6W/5KpVq3R67ty5Os/8mN966626rKRvueWW8KqBXIgblPoa3cLkC6k/kl62bJmaNm1aWR6A6qglAKpq3769vgoc18mTJ1XHjh3t2Wrw4MH6R1n6RNqGDBmi8+Qq1/Hjx3V64MCBOs/8mB84cEAdOnRIp+VqNJA39QSlvsdJlrold2HkbowEyuE8IIyRjMpRS4ACidvvMe6nbdu2OkCN6+2339a3dm0SOMv6pD+kzeSFP9IvU5hp6X4hH0lXe1AJyDI5d+PijXtoBEYyail+rQWQefX8EMchVw+kcYxLukzcdNNN9uzgSrJcDbZJ9wzJe//99+2sICB45513givJMtYrkDcudVO6UkhgYvoUy78yXa2LBeCKkYwqq7/WIrdocIvP5Yc4itxeqxT0VnLq1Ck1aNAg9fzzz9tZ6u6779bfTW71btu2TadHjx6t8+bMmaOnly5dqrZu3arTV111lc4zQbL0Q5ZGWdK33357eNVALvium4BPjGRUGbW2CXDrrnn4/iGWq7tye02uHtQiDwd94xvfsGdrEkDPmDFDr0tGt7juuut0QyukH7Ocf927d1edO3dWEydOVPv27dN55vy89957Vbdu3dT111+vbwkCeeO7bgI+MZJRZdTaJlArQA4Hykkz27LT8COJ/Sn9z+T2mglqbRIAS4B8xRVX6AfvfOIcQVFwHiPLGMmoMmptwfkaTsgXsx0kI6l9++CDD+rba3L14G9/+5ue9+abb6qVK1fq/sZyBdl3gCw4X1AUnMfIMkYyqoxaW3C+BqavdQtFbqXL7fLevXvrvwxNvyZ5Bao8/CUPW0lAZbYjwmmpNDLkjCx3//33l+VFrR/lzD5LwmuvvaZvr8lVZdmOXEWYMmVKxT7IAMolWTfRfBjJKB3U2oKTfj/2SRn1qfaK06hbKAsWLNDT8uDVkiVLdHrx4sU6b+rUqXpabq+Eu32IcNoMdm9GRwjnRa0f5cw+A5At1E345Pt8YiSjyvzuZWSO/CVmTr44n2p/uUXdQhkwYIDOk6vG8peopIcNG6bzTJAu5STfbEeE0+HXpv7jH/8oy4taP8qZfQYgW9Kqm7wMojn4Pp8Yyagyv3sZqYlzq0X6//i6khx1C0X6Mkle+DZJp06ddJ4J0qWcfMx2RDht1iHLSNeOSnmV1o9yZp8ByJY06iYvg2gevs8nRjKqzO9eRmriVhBffZKjbqGYPqpypXf//v06PXz4cJ0XvkIsDbXZjginTTAv69+zZ09ZXtT6Uc7sMwDZknTd5GUQzSWJ84mRjFrK3jdCLHFPJl+jW8S9hWL6DEtamL7GUm7atGnBdkQ4He6TfPPNN5flRa0f5cw+A5AtSddNXgbRXJI6nxjJqFz2vhFiqedk8jFOctQtFMmTANiMPjFv3jx1/vx5nSdXkGVQcOkeIoFyuCKE03KV+Itf/KK+omyWM10qotaPcvWcF/WgnyPQOknVTcPXyyBMu7x27Vo1atQo/fCUeaAraqQhU+6RRx5RV155pc6/77779AUNCbpkPc8++2ywnmovlUA8SZ5PjGT0keT2MhJVTwXJwxv3PvnJT6p77rlHB1t//vOf9XeS4Br1qee8iIt+jkDrJVE3w3y9DML8Jki3jY0bN+q0PKQlokYaMuXuuOMO9cILL5T9trz44os6LUGXiHqpBOJJ+nxCCXs5p1wqiHSlkIDG9BOWf2W6WheLNP32t79Vn/vc53RnfnlI8Oqrr1ZvvPGGvRhqcDkvotDPEfDDd920+XoZhAlu5S6g3MWTdJs2bXRe1EhD4XLhh7RlWfPAtVlP1EslEE/S5xNK2Ms5RQVBJb7PC/o5An641s04IxnJx9fLIMz6Kk1HjTQUVc6ejnqpBOIJ71skh72cU1QQVOL7vPDdz1H6NI8dO7Zsnr2MkFvB8lbHrl276h/UkSNHqk2bNgXLAnnjWjfjlvP1Moioehk10lBUOXs66qUSiCfueYHWYS/nFBUElfg+L3z3c5Q+zXKLNTzPXkbIyCmrV69WJ06c0F05ZH4W3r4EuHKtm3HL+XoZRFS9jBppKKqcPR31UgnEE/e8QOuwl3OKCoJKfJ8Xvvs5Hjt2rMW8atM7d+7UT9KPGDFCz5fbyUBeudbNuOV8vQzCrofh6aiRhqLK2dNRL5VAPHHPi3oxklG5ZPYyEpdUBUG+mR8iXx/f/RzDb2w084T80Ian5QqTpKWh3rFjR1kekEeu52895Rr5Mgikq57zIi5GMmrJ/15GKpKoIMg/3+dFUv0chQTgMk8eAJI3LYaXkbG4JS1Xx+RTqTyQJ67nb73lGvUyCKSr3vOiFkYyqszvXkZqfFeQarj1ki++z4uk+jkK86rzLVu2qDvvvLNsGfNgz+bNm9WiRYsqlgfyxPX8dSnHyyCKz+W8iMJIRpX53ctIje8KUgm3XvLH93mRVD9HIQGwPBh4+eWXl70+Xaxbt07nyR9k4RfhAHnlev66lkOx+T4vGMmoMr97GanxXUFs3HrJpyTOC/o5Aq3nWjddy6HYfJ8XjGRUmd+9jNT4riA2br3kU1LnBf0cgdZxrZuu5VBsvs8LRjKqzO9eRmp8VxCb71sva9euVaNGjdJ/IZoHweSBLakYZjihuXPnBkG5KffII4+oK6+8Uuffd999etQDCdZkPc8++2ywnpkzZ+q/hPv06aNmzZql5zWjJM8L+jkC7lzrpms5FJv5jfT1YSSjyrLzTVCXpE8i37depNvGxo0bdVoe7hILFizQ0+GB6RcvXlxW7o477lAvvPBCMC39U1988UWdlmBNLFy4UE/LyAqrVq3SaQm4m1HS5wUAN65107Ucis33ecFIRpVl55ugLkmfRL5vvUjfJOm7Kuk2bdrovAEDBuhpecWp/AUr6WHDhrUoJ3+RmmlZVipaeD1DhgwJlpVb/pIeOHBg8B2aSdLnBQA3rnXTtVy9GMkoX3yfF4xkVFl2vgnq4noS9ejRIzgJq30k6OzZs6fXWy+VpiUQl7QEvSbw7dSpU4vlak1LcG7/H9q1axcs20zC+whAdrjWTddy9WAko/zxfV4wklFl2fkmqIvrSRS3XFK3XsLTpm+rXB3ev3+/Tg8fPrzFcrWmzV+iUsmbXdzjCyBdrnXTtVxcjR7JSEY2kKuSHTp0UDfeeKOdjSqSOC8Yyagl/3sZqXCtIHHLJXXrJTw9Z84cnQ73SZa0vVyt6fB6tm7dqtNXXXVVsGwziXt8AaTLtW66lour0SMZXXDBBfr/uHfvXvXPf/7TzkYVSZ0XjGRULpm9jMS5VpC45ZK69RKeluB62rRpwegW8+bN00++2svVmpb+0HKbRtbTuXNnNXHiRLVv375g2WYS9/jWi/6KQOu41k3XcnH5GslInmGZPXu26tu3r34YS14QsXv3bp1n2uuHH35Yd/kbP368fobEzLfbd9SW5P5iJKOPJLeXkSjXClJPOW695E89xzcu+isCredaN13LxeVrJKP58+fr77p8+XL9gJakpc0QJgiW3wvJl/Qtt9xSlof6sM/SwV7OKdcKUm85br3kS73HtxZf/RVdfwhdywFZ43oeu5aLy9dIRmYEg6NHj9pZQT2Wh8HNEGByxTmch/qwz9LBXs4p1wriUo5bL/nhcnyj+OqvyA8hmp3r+e9aLs5IRvLx9RIJM8pQ+CUShtlWeCQjeVAvnIf6sM/SwV7OKdcK4loO+eD7+Prqr2h+COUOhLwtUfoyy6gmQm7fSv/Frl276h/akSNHqk2bNpWVC6elX/TYsWOrzot6kyPQKK51M+lyvkYyMleS5UqxzdTTd955J7iSLO1AOA/1YZ+lg72cU64VxLUc8sH38fXVX9H8EN5+++1Bn8SpU6fqvNGjR+thoE6cOKG7bVT7ATVp6RctD/1Umxf1JkegUVzrZtLlfI1kdPfdd+ttLlu2TG3btk2npW4LU0+lH7J0yZK0tAXhPNSHfZYO9nJOuVYQ13LIB9/H11d/RfNDKFePzZWkPn36BPk7d+7UV39HjBih8+QWcLhcOH3s2LGgXKV5UW9yBBrFtW4mXc7XSEYSQEsdlnXJ6BbXXXdd8NC3qaf33nuv6tatm7r++uv1A8HhPNQnqX3GSEblktnLSJxrBXEth3wwPzi+Pr76K5r1SX9Fu0+iXPGVaWmUd+zYESwbLmevo9J6jag3OQKNYs7jeqVRLumRjML1GH4ksT8Zyagl/3sZqXCtIK7lkA++j6+v/ormR1Ku7prxUU2XCrnqJNNyRUs+4R/Uammj0ryoNzkCjWKfp3GlVS7JkYwq1VO0ju/96Wsko6Lxu5eRGtcK4lquXtyyaQzfx9dXf0XzI/n9738/6JMoL4AR5rXimzdvVosWLSr7Qa2WNirNi3qTI9Ao9nkaV5rlGMkoP1yObxRfIxkVjd+9jNS4VhDXcvXglk3j+D6+vvormmD20Ucf1Y3r1VdfHTwFv27dOv2AoPwRJYFzOPCtljYqzYt6kyPQKPZ5Glfa5ZAPvo+v75GM1q5dq0aNGqXvGJq7kXZ7Xal9f+SRR9SVV16p2+777rtPX+CQ3wxZz7PPPquXlW50M2fO1L8b8mzLrFmz9LzwenyNeOR3LyM1rhXEtVxcWbtlY1fKokvi/5p0f0WgGbjWzbTLIR98H1/fIxlJDLBx40adljuM4Tx72XD6jjvuUC+88EIwLRdOXnzxRZ2W3yGxcOFCPS3d+1atWqXTEviG1+NrxCO/exmpCZ9o9XAtF1fWbtmEK2EzSOr/mmR/RaAZuNbNtMshH3wfX98jGUmAKhdQJN2mTZuyPHtZu5w8iG2m5dkS8wC2Wc+QIUOCZeV3R9IDBw4sW4+vEY/87mWkJnyi1cO1XFy+btnEuZ1S6XaOVALp9yzzJIAzy8Zdp32Lptry0pjMnj1bv1pVHjyTl2Hs3r07KBd1a0fGE01KkseX/oqAO9e6mXY55IP5zfLxkaCzZ8+eXkcyqjQdTksXuGp5tabN2x3Dn3bt2pUt52vEI2pRTv3Lv/yLPSuW8EmXBF+3bOLcTql0O0deUGHK2f1b46wzfIsmavn58+fraXkxxpYtW3RarqCLWrd2ZDqpQNn8XwFki2vdTLsc8sH38fU9klGlaRlSVNISqJrx8k1eVDl72jzsLc/M2OxyojUjHvndy0iFnGAXXHCBPTsW++Txzdctmzi3UyrdzpErvjJ99OhRXSHCFSbOOsO3aKKWN69gle3Yat3aMdtKIlA2/1cA2eJaN9MuVy9GMmoM38fX90hGlabN76ZcWLrzzjvL8qLK2dPhEYy2bt2q01dddVWL5YzWjHjkdy8jFf/85z/Vxz/+cXt2LPbJE1ePHj2Ck6/ax+ctmzi3U4zwtLygQtJyqyXcrynuOsO3aKKWN3nh5Y1at3bMusxrXH1/AGSPa91Mu1w9GMmocXwfX98jGVWalmE+5W7z5ZdfrrZv316WF1XOnpaLa3KnWLo0du7cWU2cOFHt27evxXJGa0Y88ruXkQr5y/wTn/iEPTsW++SJK245X7ds6rmdEp6WgFvScvVXGupwXj3rFFHLm7+IzTBmYbVu7ch0EleRhf1/AJANrnUz7XJxMZJRYyXxf2Uko5b872UkTm7xy19ELlwrVtxyvm7Z1HM7JTwtFVjSy5Yt0385hvPqWWet5c1VYNnOtm3bdHr06NEtylW6tZNUgCzs/wOAbHCtm2mXi4uRjBorqf8rIxmVS2YvI1FyhVK6NbhwrVhxy/m6ZVPP7ZTwtFxBHj9+vO4eIgFsOK+eddZaXgJ8GcFC/q8yusV1110X/PXdmls7rWX/H3yh3yHQOq51M+1ycTGSESMZNYPk9jISs3fvXl0hXbhWrHrKccumceo5TnHR7xBoPde6mXa5uBjJiJGMmgF7OYf+/ve/V2xs4nCtWPWW45ZNY9R7nGpJo9+h+dGqJCovims5ICmu52Pa5eJiJCNGMmoG7OUckr/IzV/T9XKtWC7luGWTPpfjFKXR/Q7Nj0y9XMsBSXE9H9MuF2ckI/nImLeMZMRIRkXHXs6h119/PfYrFW1ZfQkJ/PB9nHz1O4zq1xdu8KP6Gcofh1Kua9eu+odr5MiRatOmTTXLRfU3BNLiWjezWo6RjBjJqBmwl3NIrtR96lOfsmfXJIFKVl9CAj98Hydf/Q6j+vWFf7Si+hnK6CGrV69WJ06c0N07ZL4ExbXKRfU3BNLiWjezWo6RjBjJqBmwl3Poj3/8o/rsZz9rz67pww8/jP2+chsVMh98Hydf/Q6j+vWFf7Si+hmKnTt36qfJR4wYoefLLd9a5aL6GwJpca2bWS3HSEaMZNQMktnLSNQf/vAHdeWVV9qza3rvvffUhRdeaM+OJakKCb/MD4Cvj+9+h5X69Zltiah+hnKFRtLSeO/YsSN2uaj+hkBazPlYryyXYySjxqnnOMXFSEYt+d/LSNwLL7wQ3O6ph/SpkgerXCRRIeGf7+Pkq99hVL++cEAb1c9QruJIWq5gySduuaj+hkBaXOtm1ssxklFj1HucavE1klG47a2Ha7mkZe8boSZ557kZBL0ecvso7fGVkS7fx8lXv8Oofn3hxjGqn6EJdjdv3qwWLVoUu1xUf0MgLa51Mw/lGMkofS7HKYqvkYzCbW8RFOd/0kSee+45/RdfvRoxvjLS5fs4+ep3GNWvL9yoRvUzXLdunX6QUPrH2Q/nRZWL6m8IpMW1bualHNLl+zj5GsnItL1yJ0EerJa7kfKciIgaoSjcZpt0+K2IlebVeuOhD373MlIhJ9W1115rz65JboHJ7S8XviskkpHEcaLfIdB6rnUzL+WQLt/HyddIRiaYvf322/VoRpKW0YdE1AhFplw4HX4rYqV5td546IPfvYxUPPvss/qvvnr95S9/KRvDsR6+KySSkdRxot8h0DqudTMv5ZAu38fJ10hGJpiVq8fyDIqkZfQho9oIRaZcOB1+K2KlebXeeOiD372MVPz6179WN954oz27pj/96U/qM5/5jD07Ft8VEslI8jjR7xBw51o381IO6TJBo4+PDJPZs2dPLyMZmXXKKEPmLYQy+pCIGqGoUjo8GlKlebXeeOgDtSGHnnrqKfW1r33Nnl2T3N74/Oc/b8+OxfVNfUiXaWQAZItr3cxLOaTL93HyNZKRCWbl6q50i5C06VIRNUJRtbRRaV6tNx764HcvIxXSJ+eb3/ymPbsm16HjpM+p+UsQ2WY3IgCywbVu5qUc0uX7OPkaycgEs9///vf1MHGSlgenRdQIRdXSRqV5td546IPfvYxUPPbYY7FP5jAZestl6Dh5w84nPvEJezYyyG5EAGSDa93MSzmky/dx8jWSkQlmH330Uf0cy9VXXx2Mjx81QlG1tFFpXhpvPPS7l5GKn/70p+rb3/62Pbum3/3ud/qErZfcMpGhtZB9diMCIBtc62ZeyiFdSRwnRjJqyf9eRuJ+/OMfq+9973v27Jo2bNigrr/+ent2Ta15CQnSlUTDCaD1XOtmXsohXUkdJ0YyKpfMXkai5GSVv+bq9Zvf/EZ95StfsWfXJE+xyl+XyL6kGk4ZoH3NmjX6qWS5JSfbkVtm8rCH9GWTLjkAqnOtm3kph3QleZwYyegjye1lJOb+++/XA3XXS/oDuYyKIX9NDh061J6NDEqi4Txy5Ih+w6O8slQeGjUDzsu/8jT05MmTdeAst+oAVOZaN/NSDuniOKWDvZxD//3f/62fHK2X66gYr7zyivr0pz9tz0YG+W445QqyBMjTp0+PfN2nPOwhVx3kaWaf5MrFVVddZc+ORfaF7/0BuHI9F/NSDuniOKWDvZxD9957r7rrrrvs2TX97Gc/07dM6tWa8ZWRLt8N5+OPP66vIEcFyIY87CF92V599VU7y1lrAt3WlAV8cz0X81IO6eI4pYO9nEP/9V//pWbPnm3PrmnVqlXqO9/5jj27JnkzjgRKyD7fDae8/vzJJ5+0Z1clD3tIXzabvA1p5syZevgfeUXprFmz9Dzx8ssv66EJZaD5bt266YdLpR+8CXLDwe6uXbvUhAkTVNeuXfUrUUeOHKk2bdqk82RAeekjLQPXS7/9cDnZlrwK1QwVNHfu3FiBP+CLa93MSzmki+OUDvZyDs2fP1/953/+pz27JrkV/m//9m/27Jqee+4551veSJfvhlOCWtMHOQ4JYuUhD9vChQv1d5O3NMkfa5KWQFVIf3eZfv311/UILJI2L70JB7pC5q9evVqdOHFC3+GQPPM2p6lTpwbbsMfgXLBggU6HB51fvHhxsF4gaa51My/lkC6OUzrYyzkkAbIEyvVatmyZ+vd//3d7dk0bN27UV++Qfb4bzvbt26vTp0/bs6s6efKkvsJrGzJkiP5uMua2DB8k6YEDB+o8CcRlWq4KP/TQQ+rDDz8MyoUDXWPnzp36qvCIESN0Xtu2bfV8uUIt00ePHtVXlcNlBwwYoNMy/8CBAzo9bNiw8GqBRNnncVx5KYd0JXWcGMmoXDJ7GYmSrhbS5aJe8sCfPIBVL9eh45A+Exj6+kgAKkFlXNJNol+/fvZsHTjb627Xrp3OkwZZuk+Y+dIlwnTxMPMMuRIs09KASzegcL68Ol3SZ8+e1Z9wngT7kpZuF/KRdKdOnYL1AkkLn8f1yEs5pCuJ48RIRi3538tInDy0Jw/v1euee+5xeuBPKsTXv/51ezYyyHfDKVcPpHGMS7o6VHplunTBkO8mrz6tRLpPPP3007oRluUkUBbhQFdIv2WzHvmE8yU4l7RcrZZGPZxnxvuUK8n79+/X6eHDhwfrBZLmWjfzUg7p8n2c0hjJyG7Pw6LyoriWiyu5NSMxMvybXBWul/QL/Y//+A97dk0///nPdfCC7PPdWMjttUpBbyXyytJBgwZVHHB+zpw5+rvJleCtW7fqtOnnLlctZPqZZ57Rww1KWrpSiAsvvFBPHzt2TE+bYHvz5s1q0aJFZQ2kvGBH0tKtaNq0aWV54e2bPsmSBtLiWjfzUg7p8n2c8jqSkWu5uJJbMxIjLxKRF4rU6+6779afev30pz9VN998sz0bGeS7sZCrtXJ7Ta4e1CJBqryytBLpqywP08kV4s6dO6uJEyfq152LPXv2qEmTJumAWK4Uy9UMCZbFo48+qpc3r1OXF+JIH2bpI2c/nCdXkMePH6969OihA+VwngTwEjib0S3mzZunzp8/r/OANLjWzbyUQ7p8HydfIxnJMyzSJbRv3766PZfnmXbv3q3zwm1y1GhErRnFqNooSq787mWkQoIROTnqJVeR5WpyvVxHxUD6fDecQrrbyO01uXpQiQSgck5eccUV+qE8AC251s28lEO6fB8nXyMZyaAC8t2WL1+utmzZotNmCNlwQBs1GpHrKEZRoyi58ruXkYrvfe976sc//rE9uybpjyz9kuslV63vuOMOezYyyHfDaTz44IP69ppcPZDXlIs333xT/7E2ePBgfQWZABmozrVu5qUc0uX7OPkayUh+D+S7yShDtnBAGzUakXAZxShqFCVXfvcyUvHtb39bd4Gol3TId+nLLOPJysmK7PPdcIa99tpr+vaaeQhOriLIGxwr9UEGUM61bualHNJlgkMfHwkue/bs6XUkIxlhyGa2J6JGI3IdxShqFCVX1IYckgepHnvsMXt2TTJGsvTVrJfrG/6QPtNYAMgW17qZl3JIl+/j5GskI3Ml+dChQ3ZWWUAbNRqR6yhGtUZRcuF3LyMV3/zmN/UYhvWSfsUuw7a4PvCH9PluOAH44Vo381IO6fJ9nHyNZCSxgnw3uSC3bds2na70BtWo0Yh8jGJkj6Lkyu9eRiq+9rWvqaeeesqeXdN3vvMd3Zm9Xq4vL0H6fDecAPxwrZt5KYd0+T5OvkYykgBaumfKuuSK8HXXXRc89B0OaKNGI3IdxShqFCVXfvcyUnHjjTeqX//61/bsmqT/6M9+9jN7dk1ywku/ZGSf74YTgB+udTMv5ZCuJI4TIxm15H8vI3EynuGzzz5rz67JtZuGjGzhMi4z0pdEwwmg9VzrZl7KIV1JHSdGMiqXzF5Goq699tpgYO16SDcNuY1RL9e+zEhfUg2nvIVpzZo1+mljuY0m25FbYfKwh/Rl++CDD+wiAEJc62ZeyiFdSR4nRjL6SHJ7GYmRN5I999xz9uyavvKVr6jf/OY39uya5G17LkPOIX1JNJxHjhzR55wMCC93IsyA8/KvPA0tryyXwFlu1QGozLVu5qUc0sVxSgd7OYfGjh2rtm/fbs+uSV7tu2HDBnt2TRIE/fznP7dnI4N8N5xyBVkCZBljW9LVyMMectWBOw5AZa51My/lkC6OUzrYyzkkw6m88MIL9uyarr76avW73/3Onl3T17/+da4S5oTvhvPxxx/XV5CjAmRDHvaQvmyvvvqqnQU0Pde6mZdySBfHKR3s5Ry68sor1R/+8Ad7dk1yBVrGLayXazcNpM93wykPiT755JP27KrkYQ/py2aT7yWftWvXqlGjRqn+/fsHA9ebPHvZcPqRRx7R533v3r3Vfffdp8fBlIBc1mMeYj1z5oyaOXOmHjpIXl06a9YsPS+8HulTLfXALC8jt8hwQbLeuXPnxvpjAHDhWjfzUg7p4jilg72cQ5/97GfVH//4R3t2Ta5XoCdMmKA2btxoz0YG+W44JeA0fZDj2LVrl37Iw2aCVOm2IeeSpGUw+nCevWw4LSOsyLlrpmUszBdffFGnpZuHWLhwoZ6WN0HJeOCSlsA3vB7pUy3jbIoFCxboeRJwL1myRKcZ6hBJCZ/j9chLOaSL45QO9nIOfepTn3K6pf35z38+1kDhNnljjcuDgkif74azffv26vTp0/bsqmQw944dO9qzgyBVAlQZa1PSbdq0Kcuzl7XLnT17Npg+ePCgvhIcXs+QIUOCZWWIIkkPHDiwbD3Hjh0LtjNgwIBgXQcOHNDpYcOGBfmAT+FzvB55KYd0JXWcGMmoXDJ7GYmSH/LXX3/dnl3TZz7zGfWnP/3Jnl2T9EndsWOHPRsZJG8hMgFhaz8SdPbs2VMHkHG9/fbbql+/fvbsYJ2VpsPp8+fPV82rNS3BuZk2n3bt2pUtJ4G2IX8AyDwJtk3A3alTpyAf8Cl83tYjL+WQriSOEyMZteR/LyNxcptabmvXa/jw4eovf/mLPbsm1yvQyD+5emD6DschXR1uuukme3ZZMGtPt23bNghWDx06VJYXVc6elm4ekpbXq9rscsKMASpXkvfv36/TUkeAJNjnX1x5KYd0+T5OjR7JSMZglrvWLiq1774ks1YkSoKBv//97/bsmuRtOfLmnHp9+tOfVq+88oo9G01Abq9VCnorkW4U8gdcpQHn7UYsPC3npaS3bNmi7rzzzrK8qHL29Jw5c3Ra+hhv3bpVp02ja5ezlzd9kiUNJME+/+LKSzmky/dxavRIRpXa6LhaU7aWZNaKRMmT+Hv37rVn1+QaXA8dOjR4PSWai1yVldtrce4k3HrrrfqVpZXYjVh4evPmzfoBwcsvv1yP/x3OiypnT0t/aHmgT0ar6Ny5s5o4caLat29fi+UMCeqnTZsWjG4xb9483d0DSIJ9/sWVl3JIl+/j5Gsko6hRhl5++WU9ulCXLl1Ut27d9LsbpIueaZ/D7bTcLZdBA7p27aq70o0cOTJ407Dc/ZO7nDK6kbwuO1zO96hFfvcyUiH9ROUkqZecMCZoqIfcWpETGc1J+p/JOSBXDyqRYFMC5CuuuEI/MAegJdegJi/lkC7fx8nXSEZRowzJBTeZlmeq5MVmkpZRt0Q40BUyf/Xq1erEiRP6Io3kSVAspk6dGmxDLoyEy/oetcjvXkYq5C+ko0eP2rNrktsj0uezXq7BNYrjwQcf1OePXD0wdxWk6478FS/dJeQKMgEyUJ1rUJOXckiX7+PkaySjqFGGJBCXabkq/NBDD6kPP/wwKGcHyWLnzp36qvCIESN0njy/IuQKtUxLHCQXDMNlfY9a5HcvIxWf+MQnnIZhufDCC9V7771nz65JRkwwY8uieb322mv69pp54E2uIkyZMqViH2QA5ewAIK68lEO6sjqSUdQoQzK0nHSfMPPlgp/p4mHmGXIlWKZlKDoZXSuc36FDB52W0YrCQ4MK36MWURty6OMf/7j65z//ac+uSU6U8F9ucbkG5QCAknAAUI+8lEO++RrJKGqUISHdJ55++mk9nJwJlIUdJEu/ZbMe+YTzJTiXtFy8ky4i4TzfoxZRG3LoggsuCDrC10PK1XM7xZC/2qTfKQDAjWvwmZdyyDdfIxlFjTIko2fI9DPPPKNHzJK0dKUQcqdbps0Ln0ywLQ92L1q0qCwQlmdgJL1s2TL98HU4z/eoRdSGHJLO7y7SLgcAKJFb2i7yUg755msko6hRhvbs2aMmTZqkA2K5UizjMpvhZR999FG9vIx4IdatW6f7MMvb/uyH8+QK8vjx43WXEwmUw3m+Ry0iSG4gn32K+GTrI8cWQPHQbhf30+ztNiMZtUSQ3EBSKVFMcmzloTYAxUK7XVy024xkZKO2NxCNbXHJsZV+WK3pCwUge2i3i4t2u4SRjD5CbW8gGtviMo3t3XffbWcByDHa7eKi3YaN2t5ANLbFRWMLFBPtdnHRbsNGbW8gGtviorEFiol2u7hot2GjtjcQjW1x0dgCxUS7XVy027BR2xuIxra4aGyBYqLdLi7abdio7Q1EY1tcNLZAMdFuFxftNmzU9gaisS0uGlugmGi3i4t2GzZqewPR2BYXjS1QTLTbxUW7DRu1vYFobIuLxrb4PvjgA7V69Wp14403qm7duul/ZVrmo7hot4uLdhs2ansD0dgWF41tMVULjPfu3VtxPgFz8dBuFxftNmzU9gaisS0uGtviqBYYVwuA610e+UK7XVy027BR2xuIxra4aGzzzVeg62s9yA7a7eKi3YaN2t5ANLbFRWObP0kHtEmvH+mg3S4u2m3YqO0NRGNbXDS2+dCowLVR20Xr0W4XF+02bNT2BqKxLS4a2+zKWoCate+DaLTbxUW7DRu1vYFobIuLxjZb8hKI5uV7NjPa7eKi3YaN2t5ANLbFRWPbeHkPOPP+/YuKdru4aLdho7Y3EI1tcdHYNkZRA8ui/r/yiHa7uGi3YaO2NxCNbXG1prFdu3atGjZsWNm806dPq3HjxtU8ZyotN3ToUL3Oomq2ALLZ/r9ZU6sOIr9a026jmKjtDURjW1yuje2JEyfUxRdfrGbMmBHMe+mll9TYsWP1OqPOmWrL/eAHP1C9evXS6y4KAsUS9kP6ouog8s213UZxUdsbiMa2uFwb2xUrVuiyv/rVr4J5Mv2FL3yhRfBrq7bcunXr9PTKlStDS+cPAWG0ou6f1txZqaS1d1Zctol8cG23UVzU9gaisa3NDvjywrWxnTBhgi7717/+NZj31a9+VR05cqTmvqi23CuvvKKnZd15U9TAL2lF2W+tubNSTWvvrLhss9HC+8p1v4U9//zzun0rGtd2G8XVupqCVmltQ4Xscm1sJSCQsocOHbKzYv+42cvt379fT1900UWhpbKrKAFeVuR5f7reWTF5csV41KhRqn///mr9+vU6r7V3VqptM8ui9pUL3+vLCvk/ubTbKK7ineU5ktVGZteuXfqqY9euXVXHjh3VyJEj1aZNm3Te4cOH1Q033KB/dO6///6yxvLMmTNq5syZ+ipNnz591KxZs/Q8EfWjJbdOZ8+erfr27au6dOmit7179+6yciLqe2WNa2N7wQUX6LJmv4XF/WGyl5N1ybSsO6vyHMjlSd72s+udFZM3ffp0tXHjRp0eNGiQzmvtnZVq22y0uO1oOO3SZpv5cdfz8ssv6yv/8p3knLv++uvV22+/rfOyRv4/Lu02iiubtb1JZLWxHT16tP7hlNuRcmtTvqc0kOLWW2/V03KF56abbiprKBcuXBjkrVq1Sqfnzp2r88xylX605s+fr6eXL1+utmzZotNjxowpKyeivlfWuDa28iMjZd977z07q2xfRLGXO378uJ7u3bt3aKnGy1vAVjR52P+ud1ZMnvxRf+rUKZ1u06aNzmvtnZVq22y0uO1oOO3aZofXUWs90gdcpl9//XW1YcMGnZa2PIvku7m02yiubNb2JhFuZLJm586duh/giBEj9Pds27atnt+vXz89LT8+//jHP8oayyFDhgR5JjAbOHCgzjPLVfrRGjx4sJ4+evRoaeMh4fWLat8ra1wb24kTJ+qyb7zxhp3VYl/Y09Xmy1U4mZ40aVJoqcbIQ2DWjLJ6XFzvrNh54enW3lmpts1Gi9uOhtOubba9f6PWY/7wlzt/Dz30kPrwww+Dclkj39Ol3UZxZbO2N4lwI5MlS5cu1d9NulXs2LGjrEFs3769Tp89e1bf3gvnSRcIM20+7dq103nh5expU07WaQsvF/W9ska+l0tj+5Of/ESXfeqpp+ysFv9fSVf6I8FezvTBfOyxx0JLpSerARgqy9Lxcr2zYueFp1t7Z6XaNhstbjsaTru22XZe1HrWrFmju8iZ+d27d1dPPvlkUDZL5Pu5tNsormzW9iYRbmSyRPqOyXd7//339SfcIEp/M0nL7c89e/aU5V166aVBOVt4OXvaXAGpdUs16ntljXwvl8b25MmT+sdb+vfVIrcuhw8fbs9u4a677tJ3AORqUFqyFGjBXaOPo+udlai81t5ZyWqbE7cdDadd22w7L2o9QrrIPf3002ry5Ml6OQmUs0i+m0u7jeLKZm1vElltbE2Dt3nzZrVo0aKyBjHcJ/nmm28uy5szZ45OyxXfrVu3Bg2OsBvV8LQ0SJJetmyZ2rZtm06bPmvh5aK+V9aY/7tLYytXkeMEv1/+8pfV73//e3t2C7KuX/7yl/Zs7xodUCFZjTi+rndWKuWZ6dbeWclqmxO3HQ2nXdvsCy+8UKePHTtWcz3SL1qmn3nmmeChSekul0Xme7u02yimbNb2JhFugLJEfkTkNqc8NHPbbbeVNY4HDx5UX/ziF/UVZWmMZX6nTp10nlwFleXlKkHnzp31VaB9+/bpvKgGV65wSj/jSy65RF8tvu6669Rbb73VYrmo75U1zdLYNiJwKqosn8+2tI57Fu+sZPUYxW1Hw2nXNvvRRx/Vy8tIFbXWI3cc5aq9BNbyveQlMBIsZ1GztNuIL5u1vUlktbGN8slPflLdc889+sfwz3/+s/4/jB8/3l6s6RW5sU0rQEI+JH0+ZO3OSh7bbcRT5HYbbqjtDZTHxva3v/2t+tznPqevFsjDGldffXXF/oLNrmiNbdKBUKOYq2MPP/yw6tGjh/6DT57QFzIKglyZk6tjcjVThrQ6d+6czosa+zUqL+rqnJ2XR0U9T8LyfoxQXdHabbQetb2BaGyLK9zYmuDH90eCuiQ1S8AjH+lrL+PLSvqWW27ReQsWLNDT0s9yyZIlOr148WKdFzX2a1Se2Z4Rnrbz8q6o50+RjhHKybElSEYYtb2BaGyLK43GVoJkE1gl8TFj1F577bVq79699uYLwfxfDxw4oEcFkLS8sUwMGDBAT0s/fMmX9LBhw3Re1NivUXlme5Wm7bwikfNHzqPweZXUJ+k/HmUbKCY5tkm328gXansD0dgWVxEa26JeCQwzgZV0rTAvmejQoYPOM2OCh/PMQ6pRY79G5Zl54vz582XT4XQRNOr8SfKPR/PSDBSTHNu8t9vwi9reQDS2xVW0xrZRAU/STPDzzjvvBFeSzavOL7vsMj0tV5LNq4zDD5BFjf1aLU+GKJNpCbrN9kw7EE7nVVHPk7C8HyNUV7R2G61HbW8gGtviKnJjW6RAyASm0g/5gQce0Onbb79d54XHfjV9kiUtosZ+jcozL3zYsmWLuvPOO8sC43A6T4p0PsSRx2OEeIrcbsMNtb2BaGyLq1ka27wHSCYwvffee4ORKI4cOaLzZNzZadOmBaNbzJs3T3eREFFjv0blyYtwpM/y5ZdfrrZv357bIDnvx7018nKMUL9mabcRH7W9gWhsi6sZG9s8Bk55CkwbLY/HNwmcL8XVjO02olHbG4jGtriavbHNS0BFkBwtL8cxTZwvxdXs7TZaorY3EI1tcdHYfoRAK184XtFot4uLdhs2ansD0dgWF41tZQRg2cRxiY92u7hot2GjtjcQjW1x0djWRmDWWOx/N7TbxUW7DRu1vYFobIuLxrY+BGzpYD+3Hu12cdFuw0ZtbyAa2+KisXVHIOcX+9Mv2u3iot2GjdreQDS2xUVj6wcBnhv2W3Jot4uLdhs2ansD0dgWF42tfwR+0dg/6aDdLi7abdio7Q1EY1tcNLbJIiAsYT+kj3a7uGi3YaO2NxCNbXHR2Kan2QLFZvv/Zg3tdnHRbsNGbW8gGtviorFtjKIGkEX9f+UR7XZx0W7DRm1vIBrb4qKxbby8B5Z5//5FRbtdXLTbsFHbG4jGtrhobLMlLwFnXr5nM6PdLi7abdio7Q1EY1tcNLbZlbVANGvfB9Fot4uLdhs2ansD0dgWF41tPjQqQG3UdtF6tNvFRbsNG7W9gXr06KErJZ/ifeTY0tjmS9KBa9LrRzpot4v7od2GjSC5waZMmaIrJZ/ifa655hoa25zyFdD6Wg+yhXa7uB/abYQRJGfA0qVLdaXkU7zP/Pnz7cONnKk30K13eeQT7XZxP7TbMAiSASCmagHw3r17K84nMEYeSdcDAATJAOCkWsBMYIy8I0gGSqgJAAAgQJAMlFATAABAgCAZKKEmAACAAEEyUEJNAAAAAYJkoISaAABARq1du1YNGzasbN7p06fVuHHjnILZoUOH6nVGcVkvUETUBAAAMujEiRPq4osvVjNmzAjmvfTSS2rs2LHBW+Lq9YMf/ED16tVLr7sal/UCRURNAAAgg1asWKED1l/96lfBPJn+whe+EBkkmzy5Yjxq1CjVv39/tX79ep23bt06nbdy5Uqr1EeqrRdoNtQEAAAyaMKECTpg/etf/xrM++pXv6qOHDkSK0iePn262rhxo04PGjRI573yyit6WtZdTbX1As2GmgAAQAZJVwsJWA8dOmRnxQqSDx8+rE6dOqXTbdq00Xn79+/X0xdddJFV6iPV1gs0G2oCAAAZdMEFF+iA9cyZM3ZWrCC50rSsS9Ky7mqqrRdoNtQEAAAySB6wk4D1vffes7NaBMJhdl54+vjx4zrdu3fvIN9Wbb1As6EmAACQQRMnTtQB6xtvvGFnRQbCUXnSv1nSkyZNCvJtBMlACTUBAIAM+slPfqID1qeeesrOqhgIt23btmqemTajWzz22GNBvo0gGSihJgAAkEEnT57U3SJmzpxpZ7WwYcMGNXz4cHt2C3fddZfq16+ffqCvGoJkoISaAABARslV5DjB75e//GX1+9//3p7dgqzrl7/8pT27DEEyUEJNAAAAAYJkoISaAAAAAgTJQAk1AQAABAiSgRJqAgAACBAkAyXUBAAAECBIBkqoCQAAIECQDJRQEwAAQIAgGSihJgAAgABBMlBCTQAAAAGCZKCEmgAAAAIEyUAJNQEAAAQIkoESagIAAAgQJAMl1AQAABAgSAZKqAkAACBAkAyUUBMAAECAIBkooSYAAIAAQTJQQk0AAAABgmSghJoAAAACBMlACTUBAAAECJKBEmoCAAAIECQDJdQEAAAQIEgGSqgJAAAgQJAMlFATAABAgCAZKKEmAACAAEEyUEJNAAAAAYJkoISaAAAAAgTJQAk1AQAABAiSgRJqAgAACBAkAyXUBAAAECBIBkqoCQAAIECQDJRQEwAAQIAgGSihJgAAgABBMlBCTQAAAAGCZKCEmgAAAAIEyUAJNQEAAAQIkoESagIAAAgQJAMl1AQAABAgSAZKqAkAACBAkAyUUBMAAECAIBkooSYAAIAAQTJQQk0AAAABgmSghJoAAAACBMlACTUBAAAECJKBEmoCAAAIECQDJdQEAAAQIEgGSqgJAAAgQJAMlFATAABAgCAZKKEmAACAAEEyUEJNAAAAAYJkoISaAAAAAgTJQAk1AQAABAiSgRJqAgAATe6DDz5Qq1evVjfeeKNq06aN/lemZT7QrAiSAQBoQuHAuFu3bkFgvHfv3orzCZjRbAiSAQBoEtUC42oBcL3LA0VCkAwAQIH5CnR9rQfIC4JkAAAKJumANun1A1lAkAwAQAE0KnBt1HaBpBEkAwCQU1kLULP2fYDWIEgGACBH8hKI5uV7AtUQJAMAkHF5Dzjz/v3RnAiSAQDIoKIGlkX9f6F4CJIBAMiIZgsgm+3/i3whSAYAoIEIFEvYD8gagmQAAFJGQBiN/YMsIEgGACAFBH5u2G9oFIJkAAASQoDnF/sTaSJIBgDAIwK5dLCfkTSCZAAAWomArbHY/0gCQTIAAA4IzLKJ4wJfCJIBAIiJACxfOF5oDYJkAAAiEGgVA8cR9SJIBgDAQkBVbBxfxEGQDACAInDy6WMf+5j+5AHHHdXk4wwGACABBEgI43xAGEEyAKCpFDUQMldvH374YdWjRw81fvx4dfjwYZ135swZNWPGDNW9e3fVu3dvNXfuXHXu3Dmd9/LLL6uxY8eqLl266P1x/fXXq7fffrtmnn21ODxt5+VRUc8TxJfvMxgAgBiaIeAxgemtt96qli9frtO33HKLzluwYIGeXrp0qVqyZIlOL168WOcNHTpUT7/++utqw4YNOj169OiaeXYgXLQgOawZzh+0VJwzGACAKi677DIdtF177bVq7969dnYhmMD0wIED6tChQzrdt29fnTdgwAA9ffDgQZ0v6WHDhum8Xr166emRI0eqhx56SH344YfBOqPy7EC4yEFymJw/ch7J/0/OKxRXMc9gAABCmuFKoAlMpWuFfCTdoUMHnde+ffsWeZ06ddJ5a9asUV27dg3KS5eMJ598smZeOBA+f/58oYPkZjh/0FJxzmAAAGIoasBjAtN33nknuJLcv39/nWeupMuV5P379+v08OHDg7InTpxQTz/9tJo8eXIQDNfKa9u2rZ6WoNtsr0hBclHPE8SX7zMYAIBWKFIgZAJT6Yf8wAMP6PTtt9+u8+bMmaOnw32SJS3GjBmjp5955hn1yiuv6PSIESNq5g0ePFhPb9myRd15552FCJKLdD6g9fJ3BgMAkIC8B0gmML333nuDkSiOHDmi806dOqWmTZsWjG4xb9483UVC7NmzR02aNEldeOGFehSLcePG6YC4Vt7mzZt1n+XLL79cbd++PbdBct6PO5KTjzMYAIAU5TFwylNg2mh5PL5IH7UJAIAIeQmoCJKj5eU4IjuoTQAAxESglS8cL7QGQTIAAA4IwLKJ4wJfCJIBAGglArPGYv8jCQTJAAB4RMCWDvYzkkaQDABAQgjk/GJ/Ik0EyQAApIAAzw37DY1CkAwAQMoI/KKxf5AFBMkAADQQAWEJ+wFZQ5AMAEBGNFug2Gz/X+QLQTIAABlU1ACyqP8vFA9BMgAAGZf3wDLv3x/NiSAZAIAcyUvAmZfvCVRDkAwAQE5lLRDN2vcBWoMgGQCAAmhUgNqo7QJJI0gGAKBgkg5ck14/kAUEyQAAFJivgNbXeoC8IEgGAKBJ1Bvo1rs8UCQEyQAANKFqAfDevXsrzicwRrMhSAYAoMmFA+Y2bdoQGAOKIBkAAIR87GOEBoCgJgAAgABBMlBCTQAAAAGCZKCEmgAAAAIEyUAJNQEAAAQIkoESagIAAAgQJAMl1AQAABAgSAZKqAkAACBAkAyUUBMAAECAIBkooSYAAIAAQTJQQk0AAAABgmSghJoAAAACBMlACTUBAAAECJKBEmoCAAAIECQDJdQEAAAQIEgGSqgJAAAgQJAMlFATAABAgCAZKKEmAACAAEEyUEJNAAAAAYJkoISaAAAAAgTJQAk1AQAABAiSgRJqAgAACBAkAyXUBAAAECBIBkqoCQAAIECQDJRQEwAAQIAgGSihJgAAgABBMlBCTQAAAAGCZKCEmgAAAAIEyUAJNQEAAAQIkoESagIAAAgQJAMl1AQAABAgSAZKqAkAACBAkAyUUBMAAECAIBkooSYAAIAAQTJQQk0AAAABgmSghJoAAAACBMlACTUBAAAECJKBEmoCAAAIECQDJdQEAAAQIEgGSqgJAAAgQJAMlFATAABAgCAZKKEmAACAAEEyUEJNAAAAAYJkoISaAAAAAgTJQAk1AQAABAiSgRJqAgAACBAkAyXUBAAAECBIBkqoCQAAZNTatWvVsGHDyuadPn1ajRs3zimYHTp0qF5nFJf1AkVETQAAIINOnDihLr74YjVjxoxg3ksvvaTGjh2rA1mXYPYHP/iB6tWrl153NS7rBYqImgAAQAatWLFCB6y/+tWvgnky/YUvfCEySDZ5csV41KhRqn///mr9+vU6b926dTpv5cqVVqmPVFsv0GyoCQAAZNCECRN0wPrXv/41mPfVr35VHTlyJFaQPH36dLVx40adHjRokM575ZVX9LSsu5pq6wWaDTUBAIAMkq4WErAeOnTIzooVJB8+fFidOnVKp9u0aaPz9u/fr6cvuugiq9RHqq0XaDbUBAAAMuiCCy7QAeuZM2fsrFhBcqVpWZekZd3VVFsv0GyoCQAAZJA8YCcB63vvvWdntQiEw+y88PTx48d1unfv3kG+rdp6gWZDTQAAIIMmTpyoA9Y33njDzooMhKPypH+zpCdNmhTk2wiSgRJqAgAAGfSTn/xEB6xPPfWUnVUxEG7btm3VPDNtRrd47LHHgnwbQTJQQk0AACCDTp48qbtFzJw5085qYcOGDWr48OH27Bbuuusu1a9fP/1AXzUEyUAJNQEAgIySq8hxgt8vf/nL6ve//709uwVZ1y9/+Ut7dhmCZKCEmgAAAAIEyUAJNQEAAAQIkoESagIAAAgQJAMl1AQAABAgSAZKqAkAACBAkAyUUBMAAECAIBkooSYAAIAAQTJQQk0AAAABgmSghJoAAAACBMlACTUBAAAEhgwZYs8CmhJBMgAA/0+PHj30VVQ+xfvIsQXqRZAMAICim0GRybGdMmWKPRuIRIsAAIAiSC4yObZXXXWVWrp0qZ0FVEWLAACAIkguMhMk33333XYWUBUtAgAAiiC5yAiS4YIWAQAARZBcZATJcEGLAACAIkguMoJkuKBFAABAESQXGUEyXNAiAACgCJKLjCAZLmgRAABQBMlFRpAMF7QIAAAoguQiI0iGC1oEAAAUQXKRESTDBS0CAACKILnICJLhghYBAABFkFxkBMlwQYsAAIAiSC4ygmS4oEUAAEARJBcZQTJc0CIAAKAIkouMIBkuaBEAAFAEyUVGkAwXtAgAACiC5CIjSIYLWgQAABRBcpERJMMFLQIAAIogucgIkuGCFgEAAEWQXGQEyXBBiwAAgCJILjKCZLigRQAAQBEkFxlBMlzQIgAAoLIfJD///PM60Ivrf/7nf9SYMWNUx44dVe/evdV3v/tddfDgQXux1NX7//CBIBkust0iAACQkqwHyfL94n7H//u//1MdOnRQ119/vTpy5Ihas2ZNECg2Wj3/D18IkuEi3bMUAICM8hm4nT59Ws2ePVv17dtXdenSRU2YMEHt3r1b5505c0bNmDFDde/eXV/hnTt3rjp37pzOMwHk2rVr1ahRo1T//v3V+vXrg/nhAHPXrl16vV27dtVXi0eOHKk2bdqk8/71X/9VLydXkyuJ8x1uuOEGNXbs2KrzZB0zZ85UvXr1Un369FGzZs3S88LLx/l/RK3HF9kWQTLq5a9FAAAgx0zQ5sP8+fP1+pYvX662bNmi09L1QSxYsEBPL126VC1ZskSnFy9erPNM8Dh9+nS1ceNGnR40aFBZnjF69Gi1evVqdeLECfXSSy/pPAlGRc+ePfX00aNHg+XD4nyHJ554Qh0+fLjqvIULF+p5K1asUKtWrdJpCbbDy8f5f0StxxdZJ0Ey6uWvRQAAIMfCgVtrDR48WK+vUpA6YMAAnSf9gw8cOKDTw4YN03kmgJRA9NSpUzrdpk2bsrywnTt36ivCI0aM0Hlt27bV8+VfmTZXh21xvsOxY8eC5SvNGzJkSPBdjx8/rtMDBw4sWz7O/yNqPb7IOgmSUS9/LQIAADkWDtxaS7o/yPrOnj1rZ6n27dvrPOlSIB9Jd+rUSefZAWR42s6Tq8AyLV0gduzYUZbfo0cPnZags5I43yH83SvNM//H8Kddu3ZlyxvhaTsvaj2+yDoJklEvfy0CAAA5Fg7cWstcST506JCdpS677DKdJ1dx9+/fr9PDhw/XeXYAGRVcSl9nmX7//ff1J5w/adIknf7f//3fYPmwer5DtXmXXnppsH2bvXx42s6LWo8vsn6CZNTLX4sAAECO2UFga0gwJutbtmyZ2rZtm05LH2IxZ84cPR3uDyxpYQeQ4ekLL7xQp02XBxNcbt68WS1atKhs2T/84Q/6avFXvvIV3Y3hkUce0XnyoJ+o5ztUmxdex9atW3XajJ5hLx+etv8fUevxxayTIBn18NciAACQY3YQ2BrSD1f6Cl9yySX6iu91112n3nrrrSBv2rRpwcgS8+bNU+fPn9d5UcHlo48+qjp37qyHdRPr1q3TI0JcfPHF6rbbbmtR9rnnntMjS0iwLA/yfec73wkC03q+Q7V5J0+e1NuVdcj3mjhxotq3b1/F5aP+H1Hr8YUgGS78tQgAAOSYHQSiOAiS4YIWAQAARZBcZATJcEGLAACAIkguMoJkuKBFAABAESQXGUEyXNAiAACgCJKLjCAZLmgRAABQBMlFRpAMF7QIAAAoguQiI0iGC1oEAAAUQXKRESTDBS0CAACKILnICJLhghYBAABFkFxkBMlwQYsAAIAiSC4ygmS4oEUAAEARJBcZQTJc0CIAAKAIkouMIBkuaBEAAFAEyUVGkAwXtAgAACiC5CIjSIYLWgQAABRBcpERJMMFLQIAAIogucgIkuGCFgEAAEWQXGQEyXBBiwAAgCJILjKCZLigRQAAQBEkFxlBMlzQIgAAoAiSi4wgGS5oEQAAUATJRUaQDBe0CAAAKILkIiNIhgtaBAAAFEFykREkwwUtAgAA/0+PHj10MMWneB85tgTJqBdBMgAA/78pU6boYIpP8T7XXHMNQTLqQpAMAEDI0qVLdTDFp3if+fPn24cbqIogGQCAgpCuBWlIajtJrRdwwdkIAEBBpBVkJrWdpNYLuOBsBACgINIKMpPaTlLrBVxwNgIAUBBpBZlJbSep9QIuOBsBACiItILMpLaT1HoBF5yNAAAURFpBZlLbSWq9gAvORgAACiKtIDOp7SS1XsAFZyMAAAWRVpCZ1HaSWi/ggrMRAICCSCvITGo7Sa0XcMHZCABAQaQVZCa1naTWC7jgbAQAoCDSCjKT2k5S6wVccDYCAFAQaQWZSW0nqfUCLjgbAQAoiLSCzKS2k9R6ARecjQAAFERaQWZS20lqvYALzkYAAAoirSAzqe0ktV7ABWcjAAAFkVaQmdR2klov4IKzEQCAgkgryExqO0mtF3DB2QgAQEGkFWQmtZ2k1gu44GwEAKAg0goyk9qOy3q3b9+uJk+erPr166fLy78yLfOB1qj/bAQAAJnkEmS6SGo79az3zJkz6rbbbtNlqn0kX5YDXMQ/GwEAQKbVE2S2RlLbqWe9tQLkcKCcNLMtO4184ygCAFAQaQVnSW0n7nqlK4UdDEd9ku56QWBcTBxRAAAKIq1ALantxF3vt771rRaBcNRHlq/k9OnTavbs2apv376qS5cuasKECWr37t06T7ppzJgxQ3Xv3l317t1bzZ07V507d07nHTx4UF1zzTWqf//+auXKlWVBcjh9+PBhdcMNN+jl7r///rK8qPUjG+KdjQAAIPNMAJa0pLYTd719+vRpEQhHfWT5SubPn6/zly9frrZs2aLTY8aM0XkLFizQ00uXLlVLlizR6cWLF+u8qVOn6ukVK1aUdfsQ4fStt94aLHfTTTeV5UWtH9kQ72wEAACZZwKwpCW1nbjr7dChQxBwxvnI8pUMHjxY5x89etTOUgMGDNB5ctX4wIEDOj1s2DCdZ4J0KSf5ZjsinDYjbsgV5X/84x9leVHrRzbEOxsBAEDmmQAsaUltp0ePHkEgWe0zZMgQb1eSO3bsqPPPnj1rZ6n27dvrPOkWIR9Jd+rUSeeZIF3KycdsR4TTZh2yjHTtqJRXaf3IhmTOcgAAkDoTgCUtre1U46tPsrmSfOjQITtLXXbZZTpPrvTu379fp4cPH67zwleI33333WA7Ipw2wbysf8+ePWV5UetHNjT2LAcAAN6YACxpaW2nGl+jW9x99906f9myZWrbtm06PXr0aJ03Z84cPR3uMyxpYfoaS7lp06YF2xHhdLhP8s0331yWF7V+ZENjz3IAAOCNCcCSltZ2ovgYJ/nUqVN6hIlLLrlEj25x3XXXqbfeeivIkwDYjD4xb948df78eZ0nV5DHjx+vu4dIoBwOfsNpuUr8xS9+UV9RNsuZLhVR60c2NP4sBwAAXqQVvKa1nSh5eOPeJz/5SXXPPfeoDz74QP35z3/W30mCa+RD489yAADgRVrBa1rbiUO6UkyePDnoJyz/ynS1LhZp+u1vf6s+97nPqc6dO+uHBK+++mr1xhtv2Isho7JzlgMAgFZJK3hNaztAI3GWAwBQEGkFr2ltB2gkznIAAAoireA1re0AjcRZDgBAQaQVvKa1HaCROMsBACiItILXtLYDNBJnOQAABZFW8JrWdoBG4iwHAKAg0gpe693OuXPn1Jo1a9QNN9ygX9wh5S+++GJ1zTXXqB/96Ed6HGEga+o7ywEAQGbVG7y6qmc7R44cUePGjVNjxoxRTzzxhHr33Xf1fPl3/fr1ekxjCZx/8YtfWCWBxop/lgMAgEyrJ3htjbjbkSvIEiBPnz5dp6t56aWX1GWXXaYeeOABOwtomHhnOQAAyLy4wWtrxd3O448/rq8gRwXIxltvvaUuuugi9eqrr9pZQEPEO8sBAEDmxQ1eWyvudr70pS+pJ5980p5d1Q9/+EP13e9+156ttyeftWvXqlGjRqn+/fvrrhrhPHvZcPqRRx5RV155perdu7e677771NKlS3VALut59tln9bJnzpxRM2fOVL169VJ9+vRRs2bN0vPC65E+1WPHjg2WnzFjhurevbte79y5c2P9MYD8iHeWAwCAzIsbvLZW3O1IwGn6IMexa9cudemll9qzgyBVum1s3LhRpwcNGlSWZy8bTt9xxx3qhRdeCKZvu+029eKLL+q0dPMQCxcu1NMrVqxQq1at0mkJfMPrkT7Vhw8f1vMWLFig50nAvWTJEp1evHhx6UugEOKd5QAAIPPCwWKS4m6nffv26vTp0/bsqk6ePKk6duxozw6CVAlQT506pdNt2rQpy7OXtcudPXs2mD548KC+Ehxez5AhQ4Jljx8/rtMDBw4sW8+xY8eC7QwYMCBY14EDB3R62LBhQT7yL95ZDgAAMi8cLCapR48eQeBY7SNBZ8+ePXUAGdfbb7+t+vXrZ88O1llpOpw+f/581bxa0xKcm2nzadeuXdlyEmgb8geAzJNg2wTcnTp1CvKRf+nUJgAAkLhwAJgFMg6y6Tsch3R1uOmmm+zZkcFt27Ztg2D10KFDZXlR5exp6eYh6ffffz/IN+xyQrppyDy5krx//36dHj58eNkyyLds1SYAAODMDuQaTV4UUinorUS6UUg/4+eff97OahGkhqcHDx6s01u2bFF33nlnWV5UOXt6zpw5Oi19jLdu3arTV111VYvljPDypk+ypFEc2apNAADAmR3INZpclZUXhcg4yLXceuut6hvf+IY9W7OD1PD05s2b9QOCl19+udq+fXtZXlQ5e1r6Q8sDfTJaRefOndXEiRPVvn37WixnSFA/bdq0YHSLefPm6e4eKI5s1SYAAODMDuSyQN6kJ10TZBzkSiTYlAD5iiuu0A/MAVmRvdoEAACcZDFIFg8++KAel1jGQf7b3/6m57355ptq5cqVuruEXEEmQEbWZLM2AQCAumU1SBavvfaaflGIeeBNHpSbMmVKxT7IQBZktzYBAIC6ZDlIBvKG2gQAQEEQJAP+UJsAACgIgmTAH2oTAAAFQZAM+ENtAgCgIAiSAX+oTQAAFES9QfK5c+fUmjVr1A033KBf+iHlL774Yv06aXlb3gcffGAXAZpGfbUJAABkVj1B8pEjR9S4cePUmDFj1BNPPKHeffddPV/+Xb9+vZo8ebIOnOVlIEAzil+bAABApsUNkuUKsgTI06dP1+lq5HXSMq7xAw88YGe1SqXXPBtReUCaOAsBACiIuMHl448/rq8gRwXIhrxOWt6W9+qrr9pZzqIC4ag8IE2chQAAFETc4PJLX/qSevLJJ+3ZVcnrpOVtebaXX35ZjR07VnXp0kV169ZNXX/99ertt9/Webt27VITJkxQXbt2VR07dlQjR45UmzZt0nnhQPjgwYO6D3T//v31a6rDeWfOnFEzZsxQ3bt3V71791Zz586NFdgDPsSrTQAAIPPiBsm9evUK+iDHIQGvvEbaNnToUL3N119/XW3YsEGnR48erfPk39WrV6sTJ07obhuSJ4GwCAfCU6dO1ekVK1ao2267rSxvwYIFOr106VK1ZMkSnV68eHFp40DC4tUmAACQeXGD5Pbt26vTp0/bs6s6efKkvhpsk2BbtilXiR966CH14YcfluXv3LlTXwkeMWKEXq5t27Z6fjgQ7tOnj04fPXpUX1UO5w0YMECnZf6BAwd0etiwYcH6gSTFq00AACDzevToEQSZ1T5DhgxRPXv21EFnXNKFol+/fvZsPXycdKcw65ZuEaYbh1z9lXkyvNyOHTvKgt9wukOHDjp99uxZ/QnnSTAvael2IR9Jd+rUqbRxIGEEyQAANBnpAyzDvMUlXSFuuukme7Ym3SmefvppPWScCZSF9FOW6ffff19/qgXJEnxL+vDhw7oLSDhPRtaQtFxJ3r9/v04PHz68tGEgYQTJAAA0GXlRSLWg13bq1Ck1aNAg9fzzz9tZeoQMCVyfeeYZ9corr+i0dK0Q0odZpjdv3qwWLVpUNUi+9dZbdXrZsmVq2rRpZXlz5szR6XCfZEkDaSBIBgCgyciVXXlRiDxQV4sEsd/4xjfs2dqePXvUpEmT1IUXXqivHMvYyxIsi3Xr1uk+y/IGP/uBvHBariCPHz9edxWRQDmcJwG6BM5mdIt58+ap8+fPlzYOJIwgGQCAJiRv0pPuDDIOciUSoEqAfMUVV6jjx4/b2UDhESQDANCkHnzwQf2iEBkH+W9/+5ue9+abb+rxigcPHqyvIBMgo1kRJAMA0MRee+01/aIQ85Cc9CWeMmVKxT7IQDMhSAYAAAAsBMkAAACAhSAZAAAAsBAkAwAAAJb/D0C5Gqo+Y2l7AAAAAElFTkSuQmCC;" vertex="1" parent="1">
          <mxGeometry x="110" y="160" width="713" height="506" as="geometry" />
        </mxCell>
      </root>
    </mxGraphModel>
  </diagram>
</mxfile>
